<svg aria-hidden="true" style="position: absolute; width: 0; height: 0; overflow: hidden;" version="1.1" xmlns="http://www.w3.org/2000/svg" xmlns:xlink="http://www.w3.org/1999/xlink">
<defs>
<symbol id="icon-x" viewBox="0 0 32 32">
<title>x</title>
<path fill="none" stroke="#fafafa" style="stroke: var(--color1, #fafafa)" stroke-linejoin="round" stroke-linecap="round" stroke-miterlimit="4" stroke-width="2.2857" d="M24 8l-16 16"></path>
<path fill="none" stroke="#fafafa" style="stroke: var(--color1, #fafafa)" stroke-linejoin="round" stroke-linecap="round" stroke-miterlimit="4" stroke-width="2.2857" d="M8 8l16 16"></path>
</symbol>
<symbol id="icon-email" viewBox="0 0 154 32">
<title>email</title>
<path fill="none" stroke="#fafafa" style="stroke: var(--color1, #fafafa)" stroke-linejoin="miter" stroke-linecap="butt" stroke-miterlimit="4" stroke-width="0.8649" d="M16 0.432h121.946c8.598 0 15.568 6.97 15.568 15.568s-6.97 15.568-15.568 15.568h-121.946c-8.598 0-15.568-6.97-15.568-15.568s6.97-15.568 15.568-15.568z"></path>
<path fill="#fafafa" style="fill: var(--color1, #fafafa)" d="M12.27 11.948v8.809h-1.277v-8.809h1.277zM14.535 11.948v8.809h-1.277v-8.809h1.277zM18.295 20.893c-0.619 0-1.161-0.142-1.626-0.426-0.461-0.284-0.82-0.682-1.076-1.194-0.252-0.512-0.378-1.108-0.378-1.785 0-0.686 0.126-1.285 0.378-1.797 0.256-0.516 0.615-0.916 1.076-1.2 0.465-0.284 1.007-0.426 1.626-0.426 0.623 0 1.165 0.142 1.626 0.426s0.82 0.684 1.076 1.2c0.256 0.512 0.384 1.112 0.384 1.797 0 0.678-0.128 1.273-0.384 1.785s-0.615 0.91-1.076 1.194c-0.461 0.284-1.003 0.426-1.626 0.426zM18.295 19.811c0.406 0 0.741-0.106 1.005-0.319s0.459-0.495 0.585-0.845c0.13-0.355 0.195-0.741 0.195-1.159 0-0.426-0.065-0.816-0.195-1.171-0.126-0.355-0.321-0.639-0.585-0.851s-0.599-0.319-1.005-0.319c-0.402 0-0.735 0.106-0.999 0.319-0.26 0.213-0.455 0.497-0.585 0.851s-0.195 0.745-0.195 1.171c0 0.418 0.065 0.804 0.195 1.159 0.13 0.351 0.325 0.633 0.585 0.845 0.264 0.213 0.597 0.319 0.999 0.319zM22.635 23.228c-0.193 0.004-0.369-0.010-0.526-0.041-0.154-0.028-0.272-0.061-0.355-0.101l0.313-1.047 0.089 0.024c0.327 0.083 0.603 0.077 0.828-0.018 0.229-0.091 0.42-0.345 0.573-0.763l0.16-0.438-2.412-6.698h1.378l1.667 5.132h0.071l1.673-5.132h1.378l-2.72 7.485c-0.126 0.347-0.286 0.639-0.479 0.875-0.193 0.24-0.426 0.42-0.698 0.538-0.268 0.122-0.581 0.183-0.94 0.183zM30.161 20.887c-0.536 0-1.013-0.136-1.431-0.408-0.418-0.276-0.745-0.668-0.981-1.176-0.237-0.512-0.355-1.123-0.355-1.833 0-0.717 0.12-1.33 0.361-1.839s0.57-0.897 0.987-1.165 0.891-0.402 1.419-0.402c0.414 0 0.745 0.069 0.993 0.207 0.252 0.134 0.447 0.292 0.585 0.473 0.142 0.181 0.25 0.341 0.325 0.479h0.077v-3.275h1.277v8.809h-1.247v-1.029h-0.106c-0.075 0.138-0.185 0.298-0.331 0.479s-0.345 0.341-0.597 0.479c-0.248 0.134-0.573 0.201-0.976 0.201zM30.439 19.793c0.37 0 0.684-0.099 0.94-0.296s0.449-0.471 0.579-0.822c0.134-0.351 0.201-0.757 0.201-1.218s-0.065-0.863-0.195-1.206c-0.13-0.347-0.323-0.615-0.579-0.804-0.256-0.193-0.572-0.29-0.946-0.29-0.386 0-0.707 0.101-0.964 0.302s-0.449 0.475-0.579 0.822c-0.13 0.347-0.195 0.739-0.195 1.176 0 0.442 0.065 0.84 0.195 1.194 0.13 0.351 0.323 0.629 0.579 0.834 0.26 0.205 0.581 0.307 0.964 0.307zM34.413 14.147h1.277v7.041c0.004 0.441-0.075 0.814-0.236 1.117s-0.398 0.532-0.709 0.686c-0.311 0.158-0.694 0.236-1.147 0.236h-0.26v-1.106h0.207c0.307 0 0.528-0.081 0.662-0.242s0.203-0.394 0.207-0.698v-7.035zM35.045 13.13c-0.225 0-0.416-0.075-0.574-0.225s-0.236-0.329-0.236-0.538c0-0.213 0.079-0.394 0.236-0.544s0.349-0.225 0.574-0.225c0.221 0 0.41 0.075 0.568 0.225 0.162 0.15 0.242 0.331 0.242 0.544 0 0.209-0.081 0.388-0.242 0.538-0.158 0.15-0.347 0.225-0.568 0.225zM39.521 20.893c-0.646 0-1.206-0.14-1.679-0.42s-0.838-0.674-1.094-1.182c-0.252-0.512-0.378-1.11-0.378-1.791 0-0.678 0.124-1.275 0.373-1.791 0.252-0.516 0.605-0.918 1.058-1.206 0.457-0.292 0.993-0.438 1.608-0.438 0.374 0 0.737 0.061 1.088 0.183s0.666 0.315 0.946 0.579c0.28 0.264 0.501 0.607 0.662 1.029 0.166 0.422 0.248 0.93 0.248 1.525v0.461h-5.256v-0.964h4.594l-0.597 0.319c0-0.406-0.063-0.765-0.189-1.076s-0.315-0.554-0.568-0.727c-0.248-0.177-0.558-0.266-0.928-0.266s-0.688 0.089-0.952 0.266c-0.26 0.177-0.459 0.412-0.597 0.704s-0.207 0.611-0.207 0.958v0.656c0 0.453 0.079 0.838 0.237 1.153s0.376 0.556 0.656 0.721c0.284 0.166 0.613 0.248 0.987 0.248 0.244 0 0.465-0.035 0.662-0.106 0.201-0.071 0.374-0.177 0.52-0.319s0.256-0.317 0.331-0.526l1.218 0.231c-0.099 0.355-0.272 0.666-0.52 0.934s-0.562 0.477-0.94 0.627c-0.374 0.146-0.802 0.219-1.283 0.219zM46.155 14.147v1.035h-3.731v-1.035h3.731zM43.441 20.757v-7.378c0-0.41 0.091-0.751 0.272-1.023 0.185-0.276 0.426-0.481 0.721-0.615 0.3-0.138 0.621-0.207 0.964-0.207 0.264 0 0.489 0.022 0.674 0.065s0.321 0.081 0.408 0.112l-0.307 1.041c-0.059-0.020-0.136-0.041-0.231-0.065-0.091-0.024-0.205-0.035-0.343-0.035-0.311 0-0.536 0.079-0.674 0.237-0.138 0.154-0.207 0.378-0.207 0.674v7.195h-1.277zM49.873 14.147v1.035h-3.73v-1.035h3.73zM47.16 20.757v-7.378c0-0.41 0.091-0.751 0.272-1.023 0.185-0.276 0.426-0.481 0.721-0.615 0.3-0.138 0.621-0.207 0.964-0.207 0.264 0 0.489 0.022 0.674 0.065s0.321 0.081 0.408 0.112l-0.307 1.041c-0.059-0.020-0.136-0.041-0.231-0.065-0.091-0.024-0.205-0.035-0.343-0.035-0.311 0-0.536 0.079-0.674 0.237-0.138 0.154-0.207 0.378-0.207 0.674v7.195h-1.277zM53.031 20.893c-0.646 0-1.206-0.14-1.679-0.42s-0.838-0.674-1.094-1.182c-0.252-0.512-0.378-1.11-0.378-1.791 0-0.678 0.124-1.275 0.372-1.791 0.252-0.516 0.605-0.918 1.058-1.206 0.457-0.292 0.993-0.438 1.608-0.438 0.374 0 0.737 0.061 1.088 0.183s0.666 0.315 0.946 0.579c0.28 0.264 0.501 0.607 0.662 1.029 0.166 0.422 0.248 0.93 0.248 1.525v0.461h-5.256v-0.964h4.594l-0.597 0.319c0-0.406-0.063-0.765-0.189-1.076s-0.315-0.554-0.568-0.727c-0.248-0.177-0.558-0.266-0.928-0.266s-0.688 0.089-0.952 0.266c-0.26 0.177-0.459 0.412-0.597 0.704s-0.207 0.611-0.207 0.958v0.656c0 0.453 0.079 0.838 0.236 1.153s0.376 0.556 0.656 0.721c0.284 0.166 0.613 0.248 0.987 0.248 0.244 0 0.465-0.035 0.662-0.106 0.201-0.071 0.374-0.177 0.52-0.319s0.256-0.317 0.331-0.526l1.218 0.231c-0.099 0.355-0.272 0.666-0.52 0.934s-0.562 0.477-0.94 0.627c-0.374 0.146-0.802 0.219-1.283 0.219zM56.519 20.757v-6.61h1.236v1.058h0.071c0.122-0.355 0.335-0.635 0.639-0.84 0.307-0.209 0.654-0.313 1.041-0.313 0.079 0 0.172 0.004 0.278 0.012 0.11 0.004 0.199 0.010 0.266 0.018v1.23c-0.051-0.016-0.144-0.032-0.278-0.047-0.13-0.016-0.262-0.024-0.396-0.024-0.303 0-0.575 0.065-0.816 0.195-0.236 0.126-0.424 0.302-0.562 0.526-0.134 0.221-0.201 0.477-0.201 0.769v4.026h-1.277zM65.37 15.767l-1.165 0.201c-0.075-0.221-0.215-0.424-0.42-0.609-0.201-0.185-0.502-0.278-0.905-0.278-0.363 0-0.666 0.083-0.91 0.248-0.24 0.162-0.361 0.369-0.361 0.621 0 0.221 0.081 0.4 0.242 0.538 0.166 0.138 0.428 0.248 0.786 0.331l1.058 0.236c0.603 0.138 1.054 0.355 1.354 0.65s0.449 0.674 0.449 1.135c0 0.398-0.114 0.753-0.343 1.064-0.229 0.307-0.546 0.55-0.952 0.727-0.406 0.174-0.875 0.26-1.407 0.26-0.741 0-1.344-0.16-1.809-0.479s-0.751-0.769-0.857-1.348l1.236-0.189c0.079 0.323 0.238 0.568 0.479 0.733 0.244 0.166 0.56 0.248 0.946 0.248 0.418 0 0.753-0.089 1.005-0.266 0.256-0.177 0.384-0.392 0.384-0.644 0-0.418-0.311-0.7-0.934-0.845l-1.117-0.248c-0.619-0.142-1.076-0.365-1.372-0.668-0.292-0.307-0.437-0.694-0.437-1.159 0-0.39 0.108-0.733 0.325-1.029 0.221-0.296 0.522-0.524 0.905-0.686 0.386-0.166 0.826-0.248 1.319-0.248 0.717 0 1.279 0.156 1.685 0.467 0.41 0.311 0.682 0.723 0.816 1.236zM68.929 20.893c-0.619 0-1.161-0.142-1.626-0.426-0.461-0.284-0.82-0.682-1.076-1.194-0.252-0.512-0.378-1.108-0.378-1.785 0-0.686 0.126-1.285 0.378-1.797 0.256-0.516 0.615-0.916 1.076-1.2 0.465-0.284 1.007-0.426 1.626-0.426 0.623 0 1.165 0.142 1.626 0.426s0.82 0.684 1.076 1.2c0.256 0.512 0.384 1.112 0.384 1.797 0 0.678-0.128 1.273-0.384 1.785s-0.615 0.91-1.076 1.194c-0.461 0.284-1.003 0.426-1.626 0.426zM68.929 19.811c0.406 0 0.741-0.106 1.005-0.319s0.459-0.495 0.585-0.845c0.13-0.355 0.195-0.741 0.195-1.159 0-0.426-0.065-0.816-0.195-1.171-0.126-0.355-0.321-0.639-0.585-0.851s-0.599-0.319-1.005-0.319c-0.402 0-0.735 0.106-0.999 0.319-0.26 0.213-0.455 0.497-0.585 0.851s-0.195 0.745-0.195 1.171c0 0.418 0.065 0.804 0.195 1.159 0.13 0.351 0.325 0.633 0.585 0.845 0.264 0.213 0.597 0.319 0.999 0.319zM73.979 16.837v3.92h-1.277v-6.61h1.242v1.088h0.089c0.15-0.359 0.384-0.642 0.703-0.851 0.319-0.213 0.729-0.319 1.23-0.319 0.449 0 0.841 0.095 1.177 0.284 0.339 0.185 0.601 0.463 0.786 0.834 0.189 0.37 0.284 0.83 0.284 1.378v4.198h-1.277v-4.044c0-0.477-0.126-0.851-0.378-1.123-0.252-0.276-0.595-0.414-1.029-0.414-0.296 0-0.562 0.067-0.798 0.201-0.233 0.13-0.416 0.317-0.55 0.562s-0.201 0.544-0.201 0.899zM84.461 23.145c-0.891 0-1.681-0.12-2.371-0.361-0.686-0.24-1.265-0.595-1.738-1.064-0.469-0.469-0.826-1.043-1.070-1.72s-0.367-1.452-0.367-2.323c0-0.847 0.124-1.608 0.373-2.282 0.248-0.678 0.607-1.255 1.076-1.732 0.473-0.481 1.046-0.847 1.72-1.1 0.678-0.252 1.447-0.378 2.306-0.378 0.82 0 1.545 0.13 2.176 0.39 0.63 0.256 1.159 0.609 1.584 1.058 0.429 0.449 0.752 0.966 0.969 1.549 0.221 0.583 0.331 1.2 0.331 1.851 0 0.449-0.030 0.891-0.089 1.324s-0.169 0.826-0.331 1.177c-0.157 0.351-0.386 0.631-0.686 0.84-0.295 0.205-0.68 0.307-1.153 0.307-0.216 0-0.438-0.033-0.662-0.101-0.221-0.067-0.41-0.173-0.568-0.319-0.154-0.146-0.248-0.331-0.284-0.556h-0.047c-0.067 0.166-0.175 0.319-0.325 0.461-0.15 0.138-0.341 0.25-0.573 0.337-0.229 0.087-0.495 0.13-0.798 0.13-0.528 0-0.977-0.13-1.348-0.39-0.371-0.264-0.652-0.623-0.845-1.076-0.189-0.453-0.284-0.97-0.284-1.549 0-0.568 0.112-1.068 0.337-1.502 0.229-0.434 0.534-0.771 0.916-1.011 0.386-0.244 0.82-0.367 1.301-0.367 0.394 0 0.723 0.069 0.987 0.207 0.268 0.138 0.447 0.278 0.538 0.42h0.065v-0.485h1.052v3.991c0 0.229 0.060 0.422 0.177 0.579s0.29 0.236 0.515 0.236c0.26 0 0.464-0.097 0.609-0.29 0.15-0.193 0.254-0.489 0.313-0.887 0.063-0.398 0.095-0.908 0.095-1.531 0-0.437-0.060-0.847-0.177-1.23-0.118-0.386-0.29-0.735-0.515-1.046-0.221-0.315-0.495-0.585-0.822-0.81-0.327-0.229-0.7-0.404-1.118-0.526-0.418-0.126-0.877-0.189-1.378-0.189-0.69 0-1.301 0.106-1.833 0.319s-0.981 0.516-1.348 0.91c-0.363 0.394-0.638 0.867-0.828 1.419s-0.284 1.171-0.284 1.856c0 0.713 0.095 1.348 0.284 1.904 0.193 0.552 0.477 1.017 0.851 1.395 0.378 0.378 0.843 0.666 1.395 0.863 0.556 0.197 1.196 0.296 1.921 0.296 0.323 0 0.638-0.030 0.946-0.089 0.307-0.055 0.581-0.12 0.822-0.195 0.244-0.071 0.426-0.126 0.544-0.166l0.295 0.946c-0.173 0.079-0.406 0.158-0.697 0.237s-0.609 0.144-0.952 0.195c-0.343 0.051-0.68 0.077-1.011 0.077zM84.053 19.574c0.374 0 0.676-0.075 0.905-0.225s0.392-0.372 0.491-0.668c0.103-0.296 0.154-0.666 0.154-1.112 0-0.437-0.055-0.786-0.166-1.046-0.106-0.26-0.272-0.447-0.497-0.562s-0.512-0.171-0.863-0.171c-0.323 0-0.599 0.081-0.828 0.242-0.229 0.158-0.404 0.37-0.526 0.639-0.118 0.268-0.177 0.568-0.177 0.899 0 0.347 0.047 0.672 0.142 0.976 0.099 0.303 0.258 0.552 0.479 0.745 0.221 0.189 0.516 0.284 0.887 0.284zM92.922 23.37c-0.789 0-1.41-0.148-1.863-0.443s-0.766-0.646-0.94-1.052l1.1-0.455c0.079 0.126 0.183 0.26 0.313 0.402 0.134 0.142 0.313 0.262 0.538 0.361s0.515 0.148 0.869 0.148c0.485 0 0.887-0.118 1.207-0.355 0.319-0.233 0.478-0.607 0.478-1.123v-1.295h-0.088c-0.071 0.138-0.18 0.294-0.325 0.467-0.146 0.169-0.345 0.317-0.598 0.443s-0.581 0.189-0.987 0.189c-0.521 0-0.989-0.122-1.407-0.367-0.414-0.248-0.745-0.611-0.994-1.088-0.244-0.481-0.366-1.072-0.366-1.774s0.12-1.303 0.361-1.803c0.244-0.504 0.575-0.891 0.993-1.159s0.893-0.402 1.425-0.402c0.409 0 0.74 0.069 0.993 0.207 0.256 0.134 0.455 0.292 0.597 0.473s0.253 0.341 0.331 0.479h0.095v-1.076h1.247v6.758c0 0.568-0.132 1.033-0.396 1.395-0.26 0.363-0.615 0.631-1.065 0.804-0.449 0.177-0.956 0.266-1.519 0.266zM92.91 19.586c0.556 0 0.982-0.191 1.277-0.573 0.299-0.386 0.449-0.92 0.449-1.602 0-0.445-0.065-0.836-0.195-1.171-0.13-0.339-0.323-0.603-0.579-0.792-0.257-0.193-0.574-0.29-0.952-0.29-0.387 0-0.709 0.101-0.969 0.302-0.256 0.197-0.45 0.467-0.579 0.81-0.13 0.339-0.195 0.719-0.195 1.141 0 0.43 0.066 0.81 0.195 1.141 0.13 0.327 0.325 0.581 0.585 0.763 0.264 0.181 0.585 0.272 0.963 0.272zM96.889 20.757v-6.61h1.224v1.088h0.088c0.138-0.367 0.363-0.652 0.675-0.857 0.315-0.209 0.689-0.313 1.123-0.313 0.441 0 0.809 0.104 1.105 0.313 0.299 0.205 0.522 0.491 0.668 0.857h0.071c0.158-0.359 0.408-0.642 0.751-0.851 0.343-0.213 0.752-0.319 1.225-0.319 0.599 0 1.090 0.189 1.472 0.568 0.382 0.374 0.573 0.94 0.573 1.697v4.428h-1.289v-4.31c0-0.449-0.123-0.773-0.367-0.97-0.245-0.201-0.536-0.302-0.875-0.302-0.418 0-0.743 0.13-0.976 0.39-0.228 0.256-0.343 0.581-0.343 0.976v4.215h-1.29v-4.393c0-0.359-0.11-0.646-0.33-0.863s-0.511-0.325-0.869-0.325c-0.245 0-0.471 0.065-0.68 0.195-0.205 0.126-0.371 0.303-0.497 0.532-0.122 0.225-0.183 0.485-0.183 0.78v4.073h-1.277zM108.766 20.899c-0.418 0-0.796-0.077-1.135-0.231-0.339-0.158-0.607-0.386-0.804-0.686s-0.296-0.664-0.296-1.094c0-0.374 0.072-0.68 0.214-0.916 0.145-0.24 0.341-0.432 0.585-0.573s0.516-0.248 0.816-0.319c0.299-0.071 0.607-0.126 0.922-0.166 0.398-0.043 0.72-0.081 0.963-0.112s0.422-0.081 0.533-0.148c0.114-0.071 0.171-0.183 0.171-0.337v-0.030c0-0.374-0.106-0.664-0.319-0.869-0.209-0.205-0.521-0.307-0.934-0.307-0.43 0-0.771 0.095-1.023 0.284-0.248 0.185-0.419 0.396-0.515 0.633l-1.212-0.278c0.146-0.402 0.356-0.725 0.632-0.97 0.28-0.248 0.599-0.43 0.958-0.544 0.362-0.114 0.741-0.171 1.135-0.171 0.265 0 0.544 0.032 0.84 0.095 0.296 0.059 0.573 0.171 0.834 0.337 0.264 0.162 0.479 0.394 0.644 0.698s0.248 0.696 0.248 1.176v4.387h-1.259v-0.905h-0.048c-0.079 0.162-0.202 0.323-0.372 0.485-0.166 0.162-0.379 0.296-0.639 0.402s-0.573 0.16-0.94 0.16zM109.045 19.87c0.358 0 0.664-0.069 0.916-0.207 0.253-0.142 0.445-0.327 0.579-0.556s0.201-0.471 0.201-0.727v-0.857c-0.048 0.043-0.137 0.085-0.266 0.124s-0.278 0.073-0.444 0.101c-0.165 0.028-0.327 0.053-0.484 0.077-0.157 0.020-0.29 0.035-0.396 0.047-0.248 0.035-0.475 0.091-0.68 0.166-0.205 0.071-0.371 0.177-0.497 0.319-0.122 0.138-0.183 0.321-0.183 0.55 0 0.319 0.118 0.56 0.355 0.721s0.536 0.242 0.899 0.242zM113.018 20.757v-6.61h1.277v6.61h-1.277zM113.662 13.13c-0.225 0-0.416-0.075-0.573-0.225s-0.237-0.329-0.237-0.538c0-0.213 0.080-0.394 0.237-0.544s0.349-0.225 0.573-0.225c0.221 0 0.41 0.075 0.567 0.225 0.162 0.15 0.242 0.331 0.242 0.544 0 0.209-0.080 0.388-0.242 0.538-0.157 0.15-0.347 0.225-0.567 0.225zM116.56 11.948v8.809h-1.277v-8.809h1.277zM118.505 20.84c-0.24 0-0.445-0.083-0.615-0.248-0.165-0.166-0.248-0.369-0.248-0.609s0.083-0.443 0.248-0.609c0.169-0.166 0.374-0.248 0.615-0.248s0.444 0.083 0.609 0.248c0.169 0.166 0.254 0.369 0.254 0.609s-0.085 0.443-0.254 0.609c-0.165 0.166-0.368 0.248-0.609 0.248zM123.222 20.893c-0.634 0-1.182-0.146-1.643-0.437s-0.816-0.694-1.064-1.206c-0.249-0.512-0.373-1.1-0.373-1.762 0-0.674 0.126-1.267 0.378-1.78 0.257-0.516 0.613-0.918 1.071-1.206 0.461-0.292 1.001-0.438 1.62-0.438 0.504 0 0.951 0.093 1.342 0.278 0.394 0.181 0.711 0.439 0.951 0.774 0.245 0.335 0.388 0.725 0.432 1.171h-1.253c-0.043-0.209-0.128-0.4-0.254-0.573-0.122-0.173-0.284-0.311-0.485-0.414s-0.439-0.154-0.715-0.154c-0.358 0-0.672 0.095-0.94 0.284-0.264 0.185-0.471 0.451-0.62 0.798s-0.225 0.757-0.225 1.23c0 0.477 0.073 0.893 0.219 1.247s0.353 0.629 0.621 0.822c0.272 0.189 0.587 0.284 0.945 0.284 0.371 0 0.686-0.102 0.946-0.307 0.264-0.205 0.433-0.485 0.509-0.84h1.253c-0.043 0.43-0.181 0.812-0.413 1.147s-0.544 0.599-0.934 0.792c-0.391 0.193-0.846 0.29-1.367 0.29zM129.378 20.893c-0.619 0-1.161-0.142-1.626-0.426-0.461-0.284-0.82-0.682-1.076-1.194-0.253-0.512-0.379-1.108-0.379-1.785 0-0.686 0.126-1.285 0.379-1.797 0.256-0.516 0.615-0.916 1.076-1.2 0.465-0.284 1.007-0.426 1.626-0.426 0.623 0 1.165 0.142 1.626 0.426s0.82 0.684 1.076 1.2c0.256 0.512 0.384 1.112 0.384 1.797 0 0.678-0.128 1.273-0.384 1.785s-0.615 0.91-1.076 1.194c-0.461 0.284-1.003 0.426-1.626 0.426zM129.378 19.811c0.406 0 0.741-0.106 1.005-0.319s0.459-0.495 0.585-0.845c0.13-0.355 0.195-0.741 0.195-1.159 0-0.426-0.065-0.816-0.195-1.171-0.126-0.355-0.322-0.639-0.585-0.851s-0.599-0.319-1.005-0.319c-0.402 0-0.735 0.106-0.999 0.319-0.26 0.213-0.456 0.497-0.585 0.851s-0.195 0.745-0.195 1.171c0 0.418 0.066 0.804 0.195 1.159 0.13 0.351 0.325 0.633 0.585 0.845 0.264 0.213 0.597 0.319 0.999 0.319zM133.15 20.757v-6.61h1.224v1.088h0.088c0.138-0.367 0.362-0.652 0.674-0.857 0.316-0.209 0.69-0.313 1.123-0.313 0.442 0 0.81 0.104 1.106 0.313 0.299 0.205 0.522 0.491 0.668 0.857h0.071c0.157-0.359 0.408-0.642 0.751-0.851 0.343-0.213 0.751-0.319 1.224-0.319 0.599 0 1.090 0.189 1.472 0.568 0.382 0.374 0.573 0.94 0.573 1.697v4.428h-1.289v-4.31c0-0.449-0.122-0.773-0.367-0.97-0.244-0.201-0.535-0.302-0.874-0.302-0.418 0-0.743 0.13-0.976 0.39-0.229 0.256-0.343 0.581-0.343 0.976v4.215h-1.289v-4.393c0-0.359-0.111-0.646-0.331-0.863s-0.51-0.325-0.869-0.325c-0.244 0-0.47 0.065-0.68 0.195-0.205 0.126-0.37 0.303-0.496 0.532-0.122 0.225-0.183 0.485-0.183 0.78v4.073h-1.277z"></path>
</symbol>
<symbol id="icon-facebook" viewBox="0 0 32 32">
<title>facebook</title>
<path fill="none" stroke="#fafafa" style="stroke: var(--color1, #fafafa)" stroke-linejoin="miter" stroke-linecap="butt" stroke-miterlimit="4" stroke-width="0.8649" d="M16 0.432c8.598 0 15.568 6.97 15.568 15.568s-6.97 15.568-15.568 15.568c-8.598 0-15.568-6.97-15.568-15.568s6.97-15.568 15.568-15.568z"></path>
<path fill="#fafafa" style="fill: var(--color1, #fafafa)" d="M9.791 20.757v-8.809h5.469v1.141h-4.139v2.856h3.742v1.135h-3.742v3.677h-1.33zM16.134 20.757v-8.809h3.234c0.623 0 1.139 0.102 1.549 0.307s0.715 0.483 0.916 0.834c0.205 0.347 0.307 0.737 0.307 1.171 0 0.367-0.069 0.676-0.207 0.928-0.134 0.252-0.313 0.453-0.538 0.603s-0.473 0.26-0.745 0.331v0.083c0.296 0.016 0.583 0.11 0.863 0.284s0.51 0.42 0.692 0.739c0.185 0.315 0.278 0.702 0.278 1.159 0 0.449-0.106 0.853-0.319 1.212-0.209 0.355-0.532 0.637-0.97 0.845s-0.999 0.313-1.685 0.313h-3.376zM17.465 19.622h1.916c0.639 0 1.096-0.124 1.372-0.372s0.414-0.558 0.414-0.928c0-0.28-0.071-0.534-0.213-0.763-0.138-0.233-0.337-0.418-0.597-0.556s-0.568-0.207-0.922-0.207h-1.969v2.826zM17.465 15.761h1.785c0.296 0 0.564-0.057 0.804-0.171s0.43-0.276 0.568-0.485c0.142-0.213 0.213-0.459 0.213-0.739 0-0.363-0.128-0.666-0.384-0.911-0.252-0.248-0.641-0.372-1.165-0.372h-1.821v2.678z"></path>
</symbol>
<symbol id="icon-githab" viewBox="0 0 32 32">
<title>githab</title>
<path fill="none" stroke="#fafafa" style="stroke: var(--color1, #fafafa)" stroke-linejoin="miter" stroke-linecap="butt" stroke-miterlimit="4" stroke-width="0.8649" d="M16 0.432c8.598 0 15.568 6.97 15.568 15.568s-6.97 15.568-15.568 15.568c-8.598 0-15.568-6.97-15.568-15.568s6.97-15.568 15.568-15.568z"></path>
<path fill="#fafafa" style="fill: var(--color1, #fafafa)" d="M11.786 20.875c-0.796 0-1.496-0.183-2.099-0.55-0.599-0.367-1.068-0.887-1.407-1.561-0.335-0.678-0.503-1.48-0.503-2.406 0-0.938 0.169-1.744 0.508-2.418 0.343-0.678 0.812-1.198 1.407-1.561 0.595-0.367 1.273-0.55 2.034-0.55 0.473 0 0.914 0.071 1.324 0.213 0.414 0.138 0.78 0.337 1.1 0.597 0.323 0.26 0.589 0.568 0.798 0.922 0.213 0.351 0.357 0.741 0.432 1.171h-1.36c-0.083-0.264-0.193-0.499-0.331-0.704-0.138-0.209-0.303-0.386-0.497-0.532-0.193-0.15-0.412-0.262-0.656-0.337-0.24-0.079-0.508-0.118-0.804-0.118-0.497 0-0.944 0.128-1.342 0.384-0.398 0.252-0.713 0.625-0.946 1.117s-0.349 1.096-0.349 1.809c0 0.713 0.116 1.317 0.349 1.809s0.552 0.867 0.958 1.123c0.406 0.252 0.867 0.378 1.384 0.378 0.477 0 0.893-0.097 1.247-0.29 0.355-0.197 0.631-0.473 0.828-0.828s0.296-0.774 0.296-1.259l0.349 0.065h-2.519v-1.1h3.464v1.005c0 0.741-0.158 1.382-0.473 1.921-0.311 0.54-0.745 0.958-1.301 1.253-0.552 0.296-1.182 0.443-1.892 0.443zM16.38 20.757v-8.809h1.33v3.831h4.387v-3.831h1.33v8.809h-1.33v-3.837h-4.387v3.837h-1.33z"></path>
</symbol>
<symbol id="icon-Icon" viewBox="0 0 64 32">
<title>Icon</title>
<path fill="none" stroke="#fafafa" style="stroke: var(--color1, #fafafa)" stroke-linejoin="round" stroke-linecap="round" stroke-miterlimit="4" stroke-width="5.3333" d="M4 5.111h56M4 26.889h56"></path>
</symbol>
<symbol id="icon-instagram" viewBox="0 0 32 32">
<title>instagram</title>
<path fill="none" stroke="#fafafa" style="stroke: var(--color1, #fafafa)" stroke-linejoin="miter" stroke-linecap="butt" stroke-miterlimit="4" stroke-width="0.8649" d="M16 0.432c8.598 0 15.568 6.97 15.568 15.568s-6.97 15.568-15.568 15.568c-8.598 0-15.568-6.97-15.568-15.568s6.97-15.568 15.568-15.568z"></path>
<path fill="#fafafa" style="fill: var(--color1, #fafafa)" d="M12.418 11.948v8.809h-1.33v-8.809h1.33zM17.325 20.875c-0.796 0-1.496-0.183-2.099-0.55-0.599-0.367-1.068-0.887-1.407-1.561-0.335-0.678-0.503-1.48-0.503-2.406 0-0.938 0.169-1.744 0.508-2.418 0.343-0.678 0.812-1.198 1.407-1.561 0.595-0.367 1.273-0.55 2.034-0.55 0.473 0 0.914 0.071 1.324 0.213 0.414 0.138 0.78 0.337 1.1 0.597 0.323 0.26 0.589 0.568 0.798 0.922 0.213 0.351 0.357 0.741 0.432 1.171h-1.36c-0.083-0.264-0.193-0.499-0.331-0.704-0.138-0.209-0.303-0.386-0.497-0.532-0.193-0.15-0.412-0.262-0.656-0.337-0.24-0.079-0.508-0.118-0.804-0.118-0.497 0-0.944 0.128-1.342 0.384-0.398 0.252-0.713 0.625-0.946 1.117s-0.349 1.096-0.349 1.809c0 0.713 0.116 1.317 0.349 1.809s0.552 0.867 0.958 1.123c0.406 0.252 0.867 0.378 1.383 0.378 0.477 0 0.893-0.097 1.247-0.29 0.355-0.197 0.631-0.473 0.828-0.828s0.296-0.774 0.296-1.259l0.349 0.065h-2.519v-1.1h3.465v1.005c0 0.741-0.158 1.382-0.473 1.921-0.311 0.54-0.745 0.958-1.301 1.253-0.552 0.296-1.182 0.443-1.892 0.443z"></path>
</symbol>
<symbol id="icon-jefferson" viewBox="0 0 141 32">
<title>jefferson</title>
<path fill="#fafafa" style="fill: var(--color1, #fafafa)" d="M133.416 15.158l0.234-4.936-4.313 2.685-1.337-2.219 4.58-2.251-4.58-2.251 1.337-2.251 4.313 2.685-0.234-4.936h2.641l-0.234 4.936 4.313-2.685 1.337 2.251-4.58 2.251 4.58 2.251-1.337 2.219-4.313-2.685 0.234 4.936h-2.641z"></path>
<path fill="#fafafa" style="fill: var(--color1, #fafafa)" d="M112.987 14.412v10.851h-3.513v-18.297h3.415v3.011h0.244c0.412-0.993 1.057-1.778 1.936-2.357 0.878-0.589 2.006-0.884 3.383-0.884 1.236 0 2.315 0.262 3.236 0.786 0.933 0.513 1.654 1.282 2.163 2.308 0.52 1.026 0.781 2.297 0.781 3.813v11.62h-3.513v-11.194c0-1.32-0.347-2.357-1.041-3.11-0.694-0.764-1.637-1.146-2.83-1.146-0.813 0-1.545 0.185-2.196 0.556-0.64 0.36-1.144 0.878-1.512 1.555s-0.553 1.506-0.553 2.488z"></path>
<path fill="#fafafa" style="fill: var(--color1, #fafafa)" d="M99.36 25.263c-1.69 0-3.17-0.385-4.441-1.155-1.26-0.77-2.239-1.85-2.939-3.24-0.689-1.39-1.033-3.005-1.033-4.844 0-1.861 0.344-3.486 1.033-4.876 0.7-1.401 1.679-2.486 2.939-3.256 1.27-0.77 2.75-1.155 4.441-1.155 1.701 0 3.181 0.385 4.441 1.155s2.239 1.855 2.939 3.256c0.7 1.39 1.050 3.016 1.050 4.876 0 1.839-0.35 3.454-1.050 4.844s-1.679 2.47-2.939 3.24c-1.259 0.77-2.74 1.155-4.441 1.155zM99.36 22.328c1.109 0 2.024-0.289 2.745-0.866s1.254-1.342 1.599-2.294c0.355-0.963 0.533-2.010 0.533-3.144 0-1.155-0.178-2.214-0.533-3.176-0.344-0.962-0.877-1.732-1.599-2.31s-1.636-0.866-2.745-0.866c-1.098 0-2.008 0.289-2.729 0.866-0.711 0.577-1.243 1.347-1.599 2.31s-0.533 2.021-0.533 3.176c0 1.134 0.178 2.181 0.533 3.144 0.355 0.952 0.888 1.716 1.599 2.294 0.721 0.577 1.631 0.866 2.729 0.866z"></path>
<path fill="#fafafa" style="fill: var(--color1, #fafafa)" d="M88.896 11.356l-3.289 0.545c-0.212-0.599-0.606-1.15-1.185-1.652-0.568-0.503-1.419-0.754-2.554-0.754-1.024 0-1.881 0.225-2.571 0.674-0.679 0.438-1.018 1-1.018 1.684 0 0.599 0.228 1.085 0.684 1.46 0.467 0.374 1.207 0.674 2.22 0.898l2.988 0.642c1.703 0.374 2.977 0.962 3.823 1.764s1.269 1.829 1.269 3.080c0 1.080-0.323 2.042-0.968 2.887-0.645 0.834-1.541 1.492-2.688 1.973-1.146 0.47-2.471 0.706-3.973 0.706-2.092 0-3.795-0.433-5.108-1.299s-2.12-2.085-2.421-3.657l3.489-0.513c0.222 0.877 0.673 1.54 1.352 1.989 0.69 0.449 1.58 0.674 2.671 0.674 1.18 0 2.126-0.241 2.838-0.722 0.723-0.481 1.085-1.064 1.085-1.748 0-1.133-0.879-1.898-2.637-2.294l-3.155-0.674c-1.747-0.385-3.038-0.989-3.873-1.813-0.824-0.834-1.235-1.882-1.235-3.144 0-1.059 0.306-1.989 0.918-2.791 0.623-0.802 1.475-1.422 2.554-1.861 1.091-0.449 2.331-0.674 3.723-0.674 2.026 0 3.611 0.422 4.758 1.267 1.157 0.845 1.925 1.962 2.304 3.352z"></path>
<path fill="#fafafa" style="fill: var(--color1, #fafafa)" d="M64 25.263v-18.265h3.538v2.924h0.203c0.35-0.98 0.959-1.754 1.828-2.32 0.88-0.577 1.873-0.866 2.979-0.866 0.226 0 0.491 0.011 0.795 0.033 0.316 0.011 0.57 0.027 0.762 0.049v3.398c-0.147-0.044-0.412-0.087-0.796-0.131-0.372-0.044-0.75-0.065-1.134-0.065-0.869 0-1.648 0.18-2.336 0.539-0.677 0.349-1.213 0.833-1.608 1.454-0.384 0.61-0.576 1.318-0.576 2.124v11.126h-3.656z"></path>
<path fill="#fafafa" style="fill: var(--color1, #fafafa)" d="M54.344 25.263c-1.82 0-3.395-0.38-4.726-1.139s-2.358-1.829-3.079-3.208c-0.71-1.39-1.065-3.010-1.065-4.86 0-1.839 0.349-3.459 1.048-4.86 0.71-1.401 1.703-2.492 2.979-3.272 1.287-0.791 2.796-1.187 4.527-1.187 1.054 0 2.075 0.166 3.062 0.497s1.875 0.855 2.663 1.572c0.788 0.716 1.409 1.647 1.864 2.791 0.466 1.144 0.699 2.524 0.699 4.138v1.251h-14.795v-2.615h12.931l-1.681 0.866c0-1.101-0.178-2.075-0.533-2.919s-0.888-1.502-1.598-1.973c-0.699-0.481-1.57-0.722-2.613-0.722s-1.936 0.241-2.68 0.722c-0.732 0.481-1.292 1.117-1.681 1.909s-0.582 1.657-0.582 2.598v1.78c0 1.23 0.222 2.272 0.666 3.128s1.060 1.508 1.847 1.957c0.799 0.449 1.725 0.674 2.779 0.674 0.688 0 1.309-0.096 1.864-0.289 0.566-0.192 1.054-0.481 1.464-0.866s0.721-0.861 0.932-1.428l3.428 0.626c-0.277 0.963-0.766 1.807-1.465 2.534s-1.581 1.294-2.646 1.7c-1.054 0.396-2.258 0.594-3.611 0.594z"></path>
<path fill="#fafafa" style="fill: var(--color1, #fafafa)" d="M46.213 7.158v2.834h-10.844v-2.834h10.844zM38.324 25.263v-20.211c0-1.123 0.264-2.057 0.791-2.802 0.538-0.756 1.237-1.317 2.097-1.684 0.871-0.378 1.804-0.567 2.801-0.567 0.767 0 1.421 0.059 1.959 0.178s0.934 0.221 1.186 0.308l-0.894 2.85c-0.172-0.054-0.395-0.113-0.67-0.178-0.263-0.065-0.596-0.097-0.997-0.097-0.905 0-1.558 0.216-1.959 0.648-0.401 0.421-0.601 1.036-0.601 1.846v19.709h-3.712z"></path>
<path fill="#fafafa" style="fill: var(--color1, #fafafa)" d="M36.107 7.158v2.834h-10.844v-2.834h10.844zM28.219 25.263v-20.211c0-1.123 0.264-2.057 0.791-2.802 0.538-0.756 1.237-1.317 2.097-1.684 0.871-0.378 1.804-0.567 2.801-0.567 0.767 0 1.421 0.059 1.959 0.178s0.934 0.221 1.186 0.308l-0.894 2.85c-0.172-0.054-0.395-0.113-0.67-0.178-0.263-0.065-0.596-0.097-0.997-0.097-0.905 0-1.558 0.216-1.959 0.648-0.401 0.421-0.601 1.036-0.601 1.846v19.709h-3.712z"></path>
<path fill="#fafafa" style="fill: var(--color1, #fafafa)" d="M17.291 25.263c-1.82 0-3.395-0.38-4.726-1.139s-2.358-1.829-3.079-3.208c-0.71-1.39-1.065-3.010-1.065-4.86 0-1.839 0.35-3.459 1.048-4.86 0.71-1.401 1.703-2.492 2.979-3.272 1.287-0.791 2.796-1.187 4.527-1.187 1.054 0 2.075 0.166 3.062 0.497s1.875 0.855 2.663 1.572c0.788 0.716 1.409 1.647 1.864 2.791 0.466 1.144 0.699 2.524 0.699 4.138v1.251h-14.795v-2.615h12.931l-1.681 0.866c0-1.101-0.178-2.075-0.533-2.919s-0.888-1.502-1.598-1.973c-0.699-0.481-1.57-0.722-2.613-0.722s-1.936 0.241-2.68 0.722c-0.732 0.481-1.293 1.117-1.681 1.909s-0.582 1.657-0.582 2.598v1.78c0 1.23 0.222 2.272 0.666 3.128s1.060 1.508 1.847 1.957c0.799 0.449 1.725 0.674 2.779 0.674 0.688 0 1.309-0.096 1.864-0.289 0.566-0.192 1.054-0.481 1.464-0.866s0.721-0.861 0.932-1.428l3.428 0.626c-0.277 0.963-0.766 1.807-1.465 2.534s-1.581 1.294-2.646 1.7c-1.054 0.396-2.258 0.594-3.611 0.594z"></path>
<path fill="#fafafa" style="fill: var(--color1, #fafafa)" d="M2.878 7.012h3.416v19.376c0.011 1.215-0.2 2.24-0.633 3.075s-1.065 1.464-1.898 1.887c-0.833 0.434-1.856 0.651-3.068 0.651h-0.696v-3.042h0.553c0.822 0 1.413-0.222 1.771-0.667s0.543-1.085 0.554-1.92v-19.36zM4.57 4.214c-0.601 0-1.112-0.206-1.534-0.618s-0.633-0.906-0.633-1.48c0-0.586 0.211-1.085 0.633-1.497s0.933-0.618 1.534-0.618c0.59 0 1.096 0.206 1.518 0.618 0.432 0.412 0.648 0.911 0.648 1.497 0 0.575-0.216 1.068-0.648 1.48-0.422 0.412-0.928 0.618-1.518 0.618z"></path>
</symbol>
<symbol id="icon-youtube" viewBox="0 0 32 32">
<title>youtube</title>
<path fill="none" stroke="#fafafa" style="stroke: var(--color1, #fafafa)" stroke-linejoin="miter" stroke-linecap="butt" stroke-miterlimit="4" stroke-width="0.8649" d="M16 0.432c8.598 0 15.568 6.97 15.568 15.568s-6.97 15.568-15.568 15.568c-8.598 0-15.568-6.97-15.568-15.568s6.97-15.568 15.568-15.568z"></path>
<path fill="#fafafa" style="fill: var(--color1, #fafafa)" d="M8.246 11.948h1.508l2.306 4.008h0.095l2.294-4.008h1.519l-3.198 5.351v3.459h-1.33v-3.459l-3.193-5.351zM16.216 13.089v-1.141h6.823v1.141h-2.743v7.668h-1.324v-7.668h-2.755z"></path>
</symbol>
</defs>
</svg>
